<svg xmlns:dc="http://purl.org/dc/elements/1.1/" xmlns:cc="http://creativecommons.org/ns#" xmlns:rdf="http://www.w3.org/1999/02/22-rdf-syntax-ns#" xmlns:svg="http://www.w3.org/2000/svg" xmlns="http://www.w3.org/2000/svg" xmlns:sodipodi="http://sodipodi.sourceforge.net/DTD/sodipodi-0.dtd" xmlns:inkscape="http://www.inkscape.org/namespaces/inkscape" viewBox="0 0 8.4666667 10.583333625" version="1.1" x="0px" y="0px"><svg:g><svg:path style="color:#000000;font-style:normal;font-variant:normal;font-weight:normal;font-stretch:normal;font-size:medium;line-height:normal;font-family:sans-serif;font-variant-ligatures:normal;font-variant-position:normal;font-variant-caps:normal;font-variant-numeric:normal;font-variant-alternates:normal;font-feature-settings:normal;text-indent:0;text-align:start;text-decoration:none;text-decoration-line:none;text-decoration-style:solid;text-decoration-color:#000000;letter-spacing:normal;word-spacing:normal;text-transform:none;writing-mode:lr-tb;direction:ltr;text-orientation:mixed;dominant-baseline:auto;baseline-shift:baseline;text-anchor:start;white-space:normal;shape-padding:0;clip-rule:nonzero;display:inline;overflow:visible;visibility:visible;opacity:1;isolation:auto;mix-blend-mode:normal;color-interpolation:sRGB;color-interpolation-filters:linearRGB;solid-color:#000000;solid-opacity:1;vector-effect:none;fill:#000000;fill-opacity:1;fill-rule:nonzero;stroke:none;stroke-width:0.52916664;stroke-linecap:round;stroke-linejoin:round;stroke-miterlimit:4;stroke-dasharray:none;stroke-dashoffset:0;stroke-opacity:1;paint-order:normal;color-rendering:auto;image-rendering:auto;shape-rendering:auto;text-rendering:auto;enable-background:accumulate" d="M 1.3386781,3.3333333e-7 A 0.26460979,0.26460979 0 0 0 1.0751282,0.26355033 V 8.2010503 a 0.26460979,0.26460979 0 0 0 0.2635499,0.265616 h 5.7893116 a 0.26460979,0.26460979 0 0 0 0.2635488,-0.265616 v -6.132443 a 0.26460979,0.26460979 0 0 0 -0.053226,-0.158646 0.26460979,0.26460979 0 0 0 -0.0093,-0.01189 0.26460979,0.26460979 0 0 0 -0.00723,-0.0083 0.26460979,0.26460979 0 0 0 -0.00827,-0.0088 L 5.5105164,0.07803133 A 0.26460979,0.26460979 0 0 0 5.322931,3.3333333e-7 H 5.319311 Z M 1.6042949,0.52916633 H 5.0593811 V 2.0686073 a 0.26460979,0.26460979 0 0 0 0.2635499,0.26355 h 1.5389249 v 5.605343 h -5.257561 z m 3.9842529,0.374655 0.8986528,0.89916897 H 5.5885478 Z M 2.8037048,3.4395833 a 0.2646485,0.2646485 0 1 0 0,0.529167 h 2.8592571 a 0.2646485,0.2646485 0 1 0 0,-0.529167 z m -0.027388,1.365291 a 0.26500142,0.26500142 0 0 0 0.027388,0.529167 h 2.8592571 a 0.2646485,0.2646485 0 1 0 0,-0.529167 H 2.8037048 a 0.26460984,0.26460984 0 0 0 -0.027388,0 z m 0.027388,1.363225 a 0.2646485,0.2646485 0 1 0 0,0.529166 h 2.8592571 a 0.2646485,0.2646485 0 1 0 0,-0.529166 z"/></svg:g><text x="0" y="23.4666669" fill="#000000" font-size="5px" font-weight="bold" font-family="'Helvetica Neue', Helvetica, Arial-Unicode, Arial, Sans-serif">Created by Larea</text><text x="0" y="28.4666669" fill="#000000" font-size="5px" font-weight="bold" font-family="'Helvetica Neue', Helvetica, Arial-Unicode, Arial, Sans-serif">from the Noun Project</text></svg>