<?xml version="1.0" encoding="utf-8"?>
<!-- Generator: Adobe Illustrator 16.0.0, SVG Export Plug-In . SVG Version: 6.00 Build 0)  -->
<!DOCTYPE svg PUBLIC "-//W3C//DTD SVG 1.1//EN" "http://www.w3.org/Graphics/SVG/1.1/DTD/svg11.dtd">
<svg version="1.1" id="Calque_1" xmlns="http://www.w3.org/2000/svg" xmlns:xlink="http://www.w3.org/1999/xlink" x="0px" y="0px"
	 width="512px" height="512px" viewBox="0 0 512 512" enable-background="new 0 0 512 512" xml:space="preserve">
<g>
	<g>
		<path fill-rule="evenodd" clip-rule="evenodd" d="M127,1c59.333,0,118.667,0,178,0c5.625,2.785,11.811,4.821,16.76,8.514
			c10.131,7.557,20.031,15.54,29.234,24.191c13.404,12.602,26.124,25.934,39.111,38.979c18.572,18.657,38.153,36.409,53.736,57.805
			c6.206,8.522,10.329,17.79,10.299,29.017c-0.249,92.119-0.129,184.239-0.183,276.358c-0.002,3.929-0.302,7.912-0.99,11.775
			c-5.409,30.361-23.023,50.563-51.677,61.323c-4.618,1.733-9.52,2.711-14.291,4.038c-86.666,0-173.333,0-260,0
			c-2.116-0.566-4.216-1.196-6.349-1.689c-18.623-4.307-33.735-14.13-45.137-29.383c-9.721-13.002-15.509-27.561-15.51-44.056
			c-0.007-119.917-0.013-239.835,0.038-359.753c0.001-3.928,0.313-7.907,0.989-11.773c5.288-30.22,22.972-50.217,51.19-61.241
			C116.959,3.253,122.064,2.345,127,1z M100,256.874c0,57.99-0.016,115.979,0.042,173.97c0.003,3.264,0.541,6.535,0.946,9.789
			c2.313,18.604,19.892,32.431,38.458,32.407c78.319-0.095,156.639-0.041,234.959-0.039c22.295,0,39.516-17.278,39.552-39.507
			C414.074,362.007,414,290.52,414,219.032c0-13.331,0.279-26.67-0.086-39.99c-0.305-11.062-3.373-14.277-12.467-17.634
			c-4.797-1.77-10.278-2.255-15.461-2.307c-23.16-0.233-46.327-0.346-69.484,0.003c-11.367,0.171-20.631-9.358-20.619-20.442
			c0.03-26.261-0.5-52.522-0.904-78.783C294.787,47.484,288.041,41,275.674,41c-45.493,0-90.985-0.064-136.477,0.028
			c-21.938,0.044-39.084,17.173-39.144,39.377C99.896,139.228,100,198.051,100,256.874z"/>
		<path fill-rule="evenodd" clip-rule="evenodd" fill="#FFFFFF" d="M387,513c4.771-1.327,9.673-2.305,14.291-4.038
			c28.653-10.76,46.268-30.962,51.677-61.323c0.688-3.863,0.988-7.847,0.99-11.775c0.054-92.119-0.066-184.239,0.183-276.358
			c0.03-11.227-4.093-20.494-10.299-29.017c-15.583-21.396-35.164-39.147-53.736-57.805c-12.987-13.045-25.707-26.377-39.111-38.979
			c-9.203-8.651-19.104-16.635-29.234-24.191C316.811,5.821,310.625,3.785,305,1c69.293,0,138.585,0,207.938,0
			c0,170.667,0,341.333-0.007,512C470.95,513,428.976,513,387,513z"/>
		<path fill-rule="evenodd" clip-rule="evenodd" fill="#FFFFFF" d="M127,1c-4.936,1.345-10.041,2.253-14.779,4.104
			c-28.219,11.024-45.902,31.021-51.19,61.241c-0.676,3.866-0.988,7.846-0.989,11.773c-0.051,119.918-0.045,239.836-0.038,359.753
			c0.001,16.495,5.79,31.054,15.51,44.056c11.402,15.253,26.515,25.076,45.137,29.383c2.132,0.493,4.233,1.123,6.349,1.689
			c-42,0-84,0-126,0C1,342.333,1,171.667,1,1C43,1,85,1,127,1z"/>
		<path fill-rule="evenodd" clip-rule="evenodd" fill="#FFFFFF" d="M100,256.874c0-58.823-0.104-117.646,0.053-176.469
			c0.06-22.204,17.207-39.333,39.144-39.377C184.689,40.936,230.181,41,275.674,41c12.367,0,19.113,6.484,19.305,18.879
			c0.404,26.261,0.935,52.522,0.904,78.783c-0.012,11.084,9.252,20.613,20.619,20.442c23.157-0.349,46.324-0.236,69.484-0.003
			c5.183,0.052,10.664,0.537,15.461,2.307c9.094,3.356,12.162,6.572,12.467,17.634c0.365,13.32,0.086,26.659,0.086,39.99
			c0,71.487,0.074,142.975-0.044,214.462c-0.036,22.229-17.257,39.507-39.552,39.507c-78.32-0.002-156.64-0.056-234.959,0.039
			c-18.566,0.023-36.145-13.804-38.458-32.407c-0.405-3.254-0.942-6.525-0.946-9.789C99.984,372.854,100,314.864,100,256.874z
			 M256,238c30,0,60,0.039,89.999-0.044c4.263-0.012,8.544-0.443,12.779-0.972c15.456-1.93,19.122-17.304,14.794-27.864
			c-4.094-9.986-12.977-12.013-22.271-12.038c-58.833-0.162-117.666-0.112-176.499-0.038c-6.428,0.008-12.867,0.484-19.281,0.988
			c-7.663,0.603-12.951,5.017-15.319,11.963c-2.515,7.375-2.441,14.958,3.482,21.144c4.535,4.735,10.369,6.816,16.815,6.83
			C192.333,238.037,224.167,238,256,238z M256.52,395c32.987,0,65.975-0.031,98.961,0.03c5.52,0.011,10.916-1.494,14.076-5.566
			c5.293-6.819,7.464-14.885,2.991-23.243c-4.033-7.538-10.196-11.316-19.093-11.297c-64.308,0.142-128.616,0.066-192.923,0.117
			c-2.253,0.001-4.542,0.441-6.751,0.952c-10.877,2.512-16.239,10.992-14.771,23.147c0.982,8.134,10.555,16.006,19.051,15.949
			C190.878,394.869,223.699,395,256.52,395z M237.437,276c-25.15,0-50.301-0.116-75.449,0.111
			c-4.302,0.039-9.028,0.672-12.796,2.555c-8.004,3.998-10.949,11.099-10.274,20.089c0.708,9.439,7.389,15.692,15.01,17.111
			c5.303,0.988,10.825,1.08,16.25,1.089c45.303,0.079,90.606,0.073,135.909,0.001c4.59-0.008,9.252-0.226,13.752-1.046
			c8.754-1.597,14.357-7.332,16.105-16.566c1.455-7.68-3.576-18.358-10.343-20.372c-4.164-1.239-8.463-2.796-12.716-2.841
			C287.737,275.865,262.586,276,237.437,276z"/>
		<path fill-rule="evenodd" clip-rule="evenodd" d="M256,238c-31.833,0-63.667,0.037-95.5-0.031
			c-6.446-0.014-12.28-2.095-16.815-6.83c-5.923-6.186-5.997-13.769-3.482-21.144c2.368-6.946,7.657-11.36,15.319-11.963
			c6.415-0.504,12.853-0.98,19.281-0.988c58.833-0.074,117.666-0.124,176.499,0.038c9.294,0.025,18.177,2.052,22.271,12.038
			c4.328,10.561,0.662,25.935-14.794,27.864c-4.235,0.528-8.517,0.96-12.779,0.972C316,238.039,286,238,256,238z"/>
		<path fill-rule="evenodd" clip-rule="evenodd" d="M256.52,395c-32.82,0-65.641-0.131-98.46,0.09
			c-8.496,0.057-18.068-7.815-19.051-15.949c-1.468-12.155,3.894-20.636,14.771-23.147c2.209-0.511,4.499-0.951,6.751-0.952
			c64.308-0.051,128.616,0.024,192.923-0.117c8.896-0.02,15.06,3.759,19.093,11.297c4.473,8.358,2.302,16.424-2.991,23.243
			c-3.16,4.072-8.557,5.577-14.076,5.566C322.494,394.969,289.507,395,256.52,395z"/>
		<path fill-rule="evenodd" clip-rule="evenodd" d="M237.437,276c25.149,0,50.301-0.135,75.448,0.131
			c4.253,0.045,8.552,1.602,12.716,2.841c6.767,2.014,11.798,12.692,10.343,20.372c-1.748,9.234-7.352,14.97-16.105,16.566
			c-4.5,0.82-9.162,1.038-13.752,1.046c-45.303,0.072-90.606,0.078-135.909-0.001c-5.425-0.009-10.947-0.101-16.25-1.089
			c-7.621-1.419-14.301-7.672-15.01-17.111c-0.674-8.99,2.27-16.091,10.274-20.089c3.769-1.883,8.494-2.516,12.796-2.555
			C187.136,275.884,212.287,276,237.437,276z"/>
	</g>
</g>
</svg>
